<?xml version="1.0" standalone="no"?>
<!DOCTYPE svg PUBLIC "-//W3C//DTD SVG 20010904//EN"
 "http://www.w3.org/TR/2001/REC-SVG-20010904/DTD/svg10.dtd">
<svg version="1.0" xmlns="http://www.w3.org/2000/svg"
 width="512.000000pt" height="512.000000pt" viewBox="0 0 512.000000 512.000000"
 preserveAspectRatio="xMidYMid meet">
<metadata>
Created by potrace 1.11, written by Peter Selinger 2001-2013
</metadata>
<g transform="translate(0.000000,512.000000) scale(0.100000,-0.100000)"
fill="#000000" stroke="none">
<path d="M2428 5085 c-2 -2 -41 -6 -88 -9 -81 -6 -114 -11 -285 -42 -227 -41
-541 -164 -770 -302 -91 -55 -235 -156 -289 -202 -377 -322 -628 -683 -775
-1116 -38 -111 -83 -284 -96 -364 -3 -19 -7 -46 -10 -60 -32 -166 -36 -498
-10 -685 3 -19 7 -52 10 -72 42 -294 162 -621 328 -898 144 -239 399 -526 604
-679 51 -38 93 -73 93 -78 0 -4 -12 -8 -26 -8 -17 0 -23 -4 -18 -12 6 -10 4
-10 -7 -2 -8 5 -23 9 -34 8 -81 -11 -104 -18 -98 -28 4 -7 1 -6 -7 1 -10 9
-18 9 -34 1 -12 -6 -22 -11 -23 -10 -2 1 -18 2 -35 2 -32 -1 -32 -1 -13 -17
l20 -16 -20 9 c-29 11 -87 7 -96 -7 -4 -8 -1 -18 9 -26 16 -12 15 -12 -2 -6
-14 5 -17 3 -11 -7 5 -8 4 -11 -3 -6 -6 3 -9 18 -6 32 4 22 3 24 -16 14 -11
-6 -20 -15 -20 -19 0 -5 -7 -12 -16 -15 -15 -6 -15 -4 -3 10 12 15 10 16 -21
9 -19 -4 -39 -12 -45 -19 -5 -7 -15 -11 -21 -9 -15 5 -94 -29 -94 -41 0 -5 8
-15 18 -23 15 -13 15 -13 -5 -4 -12 6 -23 15 -25 21 -2 6 -16 -2 -32 -17 -28
-26 -29 -27 -7 -34 29 -11 27 -17 -4 -11 -21 4 -24 1 -18 -14 11 -30 44 -55
67 -49 12 3 15 2 9 -1 -7 -3 -13 -10 -13 -15 0 -6 4 -8 9 -4 5 3 13 0 16 -6 4
-5 13 -8 20 -5 7 2 16 -2 19 -10 7 -17 27 -19 22 -1 -1 6 -1 9 1 4 3 -4 9 -5
14 -2 5 4 6 0 3 -8 -3 -9 3 -16 18 -20 13 -3 34 -8 48 -12 20 -5 22 -5 10 5
-12 9 -11 10 9 5 17 -5 22 -4 16 5 -5 9 -4 11 4 6 9 -6 9 -11 0 -22 -9 -11 -8
-14 7 -15 11 0 30 -3 44 -6 14 -3 34 -6 45 -7 11 0 23 -5 27 -11 5 -6 8 -4 8
5 0 10 3 11 8 3 4 -6 20 -15 36 -19 23 -5 27 -4 21 7 -7 12 -6 12 7 1 9 -7 27
-15 39 -17 45 -9 124 -19 147 -18 12 1 22 -4 22 -9 0 -6 6 -5 15 2 12 10 15
10 15 0 0 -7 6 -10 14 -7 7 3 19 0 25 -6 8 -8 11 -8 11 2 0 7 4 9 10 6 5 -3
26 -8 47 -11 29 -3 35 -2 25 8 -6 6 -12 17 -12 23 0 5 9 -3 20 -20 11 -17 20
-23 20 -15 0 10 3 11 8 3 10 -16 152 -25 152 -10 0 7 4 6 9 -2 12 -18 105 -26
94 -8 -5 9 -3 9 8 0 9 -7 57 -15 109 -18 52 -3 97 -8 101 -11 4 -2 10 0 13 5
3 5 -1 11 -9 15 -8 3 -15 11 -14 18 0 10 2 10 6 0 2 -6 8 -10 13 -7 5 3 11 -4
15 -15 5 -15 14 -20 38 -18 18 1 38 6 46 12 11 8 13 8 7 -2 -5 -9 7 -12 51
-13 32 0 72 -2 88 -3 17 -2 38 4 48 13 16 13 17 13 12 0 -5 -13 7 -16 69 -16
41 -1 81 -5 87 -9 9 -5 10 -2 6 9 -3 9 -2 19 4 22 5 4 8 1 7 -5 -4 -15 39 -33
47 -20 4 6 0 10 -7 10 -9 0 -9 3 2 10 8 5 20 10 25 10 6 0 5 -4 -2 -8 -8 -5
-9 -13 -3 -22 7 -11 10 -12 10 -2 0 7 5 10 11 6 6 -3 31 -7 55 -9 37 -2 42 0
33 11 -10 12 -8 13 6 8 14 -6 16 -4 10 6 -5 8 -4 11 3 6 6 -4 8 -14 5 -24 -6
-15 -5 -15 10 -3 9 7 17 9 17 4 0 -5 11 -9 24 -9 14 0 22 4 20 8 -3 4 0 8 5 8
6 0 11 -4 11 -10 0 -11 28 -9 48 3 7 5 12 3 12 -5 0 -9 3 -9 10 2 6 10 10 11
10 3 0 -7 5 -13 11 -13 5 0 7 6 3 12 -5 10 -4 10 6 1 9 -8 19 -9 32 -2 10 5
18 6 18 1 0 -5 7 -9 15 -9 8 0 15 5 15 10 0 5 8 3 17 -4 15 -12 16 -12 10 6
-7 20 -7 20 8 1 8 -11 15 -15 15 -10 0 11 27 12 45 3 20 -10 90 -2 87 10 -2 9
3 9 17 1 26 -13 145 -7 165 9 9 8 16 9 21 1 3 -5 38 -10 76 -10 44 0 68 4 64
10 -3 6 -1 10 4 10 6 0 11 -4 11 -9 0 -10 47 -8 57 3 3 3 13 0 21 -7 13 -10
14 -9 8 10 -5 16 -3 21 8 19 9 -1 19 -6 23 -11 4 -4 2 -5 -4 -1 -7 4 -13 3
-13 -2 0 -6 7 -12 15 -16 8 -3 15 -1 15 5 0 6 5 7 10 4 6 -3 10 2 11 12 0 15
2 15 7 3 7 -15 82 -23 82 -9 0 3 12 4 27 1 22 -4 25 -2 20 14 -7 17 -6 18 6 2
15 -19 74 -18 69 1 -2 9 3 9 18 1 10 -6 39 -8 62 -4 24 3 65 6 91 7 30 1 51 8
57 17 5 8 10 10 10 4 0 -7 13 -10 33 -8 17 2 46 5 62 7 17 2 30 9 30 15 0 5 4
14 9 19 6 5 6 2 1 -6 -6 -11 -4 -13 10 -7 15 5 16 4 6 -8 -11 -13 -8 -14 21
-5 18 6 48 10 66 10 18 -1 32 3 32 10 0 6 -6 9 -13 6 -8 -3 -14 1 -14 9 0 12
3 12 22 0 23 -15 100 -11 111 5 2 4 11 6 18 3 8 -3 33 0 57 6 24 7 52 14 61
16 100 22 107 26 118 52 l10 27 -5 -27 c-5 -26 -5 -27 22 -12 16 7 34 14 41
14 6 0 12 5 12 11 0 5 4 8 9 4 5 -3 16 1 24 9 8 8 16 13 19 11 2 -2 17 7 33
21 17 14 24 23 18 19 -7 -3 -13 -1 -13 4 0 6 6 11 14 11 9 0 12 7 9 20 -3 11
-10 20 -15 20 -5 0 -6 5 -2 12 5 8 2 9 -9 5 -10 -4 -16 -2 -14 6 1 7 -4 11
-10 10 -7 -2 -13 1 -13 7 0 9 -55 39 -82 44 -7 2 -25 8 -41 14 -33 14 -76 24
-99 24 -10 -1 -18 5 -18 11 0 7 -4 6 -10 -3 -5 -8 -10 -10 -10 -4 0 6 -23 16
-51 22 -63 15 -69 15 -65 0 1 -7 1 -10 -1 -5 -3 4 -9 5 -13 2 -5 -3 -12 0 -16
6 -4 8 -3 9 4 5 7 -4 12 -2 12 3 0 16 -26 13 -40 -4 -14 -17 -30 -20 -30 -4 0
5 4 8 9 4 5 -3 12 -1 16 5 5 9 -7 14 -26 12 -4 -1 -21 3 -38 8 -22 6 -31 5
-31 -3 0 -8 -3 -8 -9 1 -4 8 -10 13 -12 12 -2 -1 -11 1 -19 4 -34 11 -80 12
-84 2 -3 -7 -5 -7 -5 1 -1 6 43 45 97 85 125 94 356 325 453 453 459 609 621
1372 443 2088 -161 647 -544 1175 -1106 1525 -252 157 -606 292 -875 332 -43
7 -86 14 -95 15 -65 13 -450 29 -460 20z m-1263 -4525 c3 -5 1 -10 -4 -10 -6
0 -11 5 -11 10 0 6 2 10 4 10 3 0 8 -4 11 -10z m2841 -9 c-4 -5 -1 -12 4 -14
6 -3 5 -4 -2 -3 -15 3 -23 26 -8 26 6 0 9 -4 6 -9z m-2956 -6 c0 -7 -30 -13
-34 -7 -3 4 4 9 15 9 10 1 19 0 19 -2z m82 -2 c-6 -2 -9 -10 -6 -15 4 -7 2 -8
-4 -4 -18 11 -14 26 6 25 10 0 12 -3 4 -6z m49 -24 c-5 -13 -10 -19 -10 -12
-1 15 10 45 15 40 3 -2 0 -15 -5 -28z m2863 19 c-5 -8 -1 -9 12 -4 14 5 16 4
7 -5 -13 -13 -37 -3 -28 12 4 5 8 9 11 9 3 0 2 -5 -2 -12z m-3020 -27 c-2 -3
-12 3 -22 13 -16 17 -16 18 5 5 12 -7 20 -15 17 -18z m70 5 c-3 -9 -10 -16
-15 -16 -5 0 -4 9 3 20 14 22 21 20 12 -4z m2824 4 c-7 -10 -14 -17 -17 -15
-4 4 18 35 25 35 2 0 -1 -9 -8 -20z m206 -10 c-6 -6 -10 -3 -10 10 0 13 4 16
10 10 7 -7 7 -13 0 -20z m-3152 1 c-4 -10 -1 -12 8 -6 9 6 11 4 5 -4 -5 -9
-10 -10 -18 -2 -15 15 -30 14 -21 -1 4 -7 3 -9 -1 -5 -17 15 -12 32 10 32 15
0 21 -5 17 -14z m2992 7 c-3 -4 0 -8 7 -8 7 0 10 -2 7 -5 -7 -7 -38 5 -38 14
0 4 7 8 15 8 8 0 12 -4 9 -9z m-3059 -7 c3 -5 0 -13 -6 -17 -8 -5 -9 -3 -4 6
6 10 4 12 -9 7 -10 -4 -15 -3 -11 3 8 13 22 13 30 1z m300 0 c3 -5 2 -12 -3
-15 -5 -3 -9 1 -9 9 0 17 3 19 12 6z m-41 -17 c3 -8 2 -12 -4 -9 -6 3 -10 10
-10 16 0 14 7 11 14 -7z m2875 -7 c0 -9 -2 -8 -6 1 -2 6 -10 9 -15 6 -7 -4 -8
-2 -4 5 9 13 26 5 25 -12z m-3027 4 c-8 -4 -13 -12 -12 -17 1 -5 -4 -10 -12
-12 -9 -2 -8 0 2 7 8 6 11 11 7 11 -5 0 -5 5 -2 10 3 6 12 10 18 10 8 0 8 -3
-1 -9z m2856 -22 c-3 -8 -7 -3 -11 10 -4 17 -3 21 5 13 5 -5 8 -16 6 -23z
m229 9 c-3 -8 -6 -5 -6 6 -1 11 2 17 5 13 3 -3 4 -12 1 -19z m93 -16 c0 -1 -8
2 -19 7 -10 6 -21 7 -25 3 -4 -3 -4 1 -1 10 6 15 8 15 26 0 10 -9 19 -18 19
-20z m30 23 c-7 -9 -15 -13 -19 -10 -3 3 1 10 9 15 21 14 24 12 10 -5z m137
-7 c-3 -8 -6 -5 -6 6 -1 11 2 17 5 13 3 -3 4 -12 1 -19z m-3544 -8 c3 -11 1
-18 -4 -14 -5 3 -9 12 -9 20 0 20 7 17 13 -6z m57 10 c0 -5 -2 -10 -4 -10 -3
0 -8 5 -11 10 -3 6 -1 10 4 10 6 0 11 -4 11 -10z m70 0 c8 -5 11 -10 5 -10 -5
0 -17 5 -25 10 -8 5 -10 10 -5 10 6 0 17 -5 25 -10z m130 6 c0 -2 -7 -7 -16
-10 -8 -3 -12 -2 -9 4 6 10 25 14 25 6z m74 -13 c3 -7 0 -15 -6 -19 -7 -4 -8
-3 -4 4 7 12 -5 16 -31 13 -7 -1 -13 2 -13 7 0 13 49 9 54 -5z m91 8 c-9 -8
-36 -10 -30 -2 2 4 11 8 20 8 8 0 13 -3 10 -6z m2705 -1 c8 -5 11 -10 5 -10
-5 0 -17 5 -25 10 -8 5 -10 10 -5 10 6 0 17 -5 25 -10z m55 0 c3 -6 -1 -7 -9
-4 -18 7 -21 14 -7 14 6 0 13 -4 16 -10z m269 2 c3 -5 -1 -9 -9 -9 -8 0 -12 4
-9 9 3 4 7 8 9 8 2 0 6 -4 9 -8z m-191 -23 c-8 -8 -13 -7 -18 2 -5 8 -4 10 3
5 7 -4 12 -2 12 5 0 7 3 9 7 6 4 -4 2 -12 -4 -18z m347 17 c0 -2 -7 -7 -16
-10 -8 -3 -12 -2 -9 4 6 10 25 14 25 6z m-3347 -37 c-8 -8 -13 -7 -18 2 -6 8
-4 10 5 4 10 -6 12 -4 6 11 -6 15 -5 17 5 7 9 -10 10 -16 2 -24z m87 6 c-7 -8
-16 -15 -21 -15 -5 0 -1 8 9 18 20 22 31 19 12 -3z m2744 13 c-5 -7 -2 -9 8
-5 17 6 19 -16 3 -30 -4 -4 -5 -3 -2 3 4 7 0 15 -9 18 -13 5 -12 26 2 26 3 0
2 -5 -2 -12z m79 -14 c-5 -14 -9 -13 -43 14 -3 3 6 1 19 -3 18 -5 22 -4 16 5
-5 8 -4 11 3 6 6 -4 9 -13 5 -22z m81 -13 c-5 -6 -34 20 -34 30 0 5 8 1 18 -8
10 -10 17 -20 16 -22z m63 32 c-4 -3 -1 -13 6 -22 11 -14 10 -14 -5 -2 -21 15
-23 31 -6 31 6 0 8 -3 5 -7z m323 -1 c0 -12 -22 -32 -34 -32 -6 0 -3 5 7 11 9
6 15 14 12 20 -4 5 -1 9 4 9 6 0 11 -4 11 -8z m-3560 -44 c0 -5 -5 -8 -11 -8
-5 0 -8 4 -4 9 3 5 1 12 -5 16 -5 3 -10 11 -10 18 0 12 29 -23 30 -35z m34 28
c-10 -8 -21 -12 -24 -10 -5 6 21 24 34 24 6 0 1 -6 -10 -14z m107 -9 c-10 -9
-11 -8 -5 6 3 10 9 15 12 12 3 -3 0 -11 -7 -18z m243 7 c3 -8 2 -12 -4 -9 -6
3 -10 10 -10 16 0 14 7 11 14 -7z m2569 1 c-3 -9 -8 -14 -10 -11 -3 3 -2 9 2
15 9 16 15 13 8 -4z m169 -8 c-7 -8 -9 -17 -5 -20 3 -4 1 -7 -5 -7 -7 0 -12 2
-12 5 0 10 24 44 29 40 2 -3 -1 -11 -7 -18z m188 8 c-7 -8 -17 -15 -23 -15 -6
0 -2 7 9 15 25 19 30 19 14 0z m183 2 c4 3 7 1 7 -5 0 -17 -16 -15 -31 6 -12
15 -12 16 2 5 9 -7 19 -10 22 -6z m-3798 -7 c3 -5 1 -10 -4 -10 -6 0 -11 5
-11 10 0 6 2 10 4 10 3 0 8 -4 11 -10z m57 -8 c-3 -10 -1 -13 6 -8 8 5 10 2 6
-9 -7 -18 -7 -18 -22 11 -8 16 -8 21 3 21 7 0 11 -7 7 -15z m47 -16 c-3 -3
-11 5 -18 17 -13 21 -12 21 5 5 10 -10 16 -20 13 -22z m46 24 c3 -6 -1 -7 -9
-4 -10 4 -16 1 -16 -7 0 -7 -3 -10 -6 -6 -7 7 4 27 16 27 5 0 12 -4 15 -10z
m38 -8 c-10 -10 -20 -17 -22 -16 -6 5 20 34 30 34 5 0 1 -8 -8 -18z m77 14 c0
-2 -7 -7 -16 -10 -8 -3 -12 -2 -9 4 6 10 25 14 25 6z m154 -12 c3 -8 2 -12 -4
-9 -6 3 -10 10 -10 16 0 14 7 11 14 -7z m206 1 c0 -1 -6 -8 -14 -14 -11 -9
-16 -9 -22 0 -5 8 -3 9 6 4 10 -6 12 -4 7 8 -4 11 -2 14 9 10 7 -3 14 -6 14
-8z m40 11 c0 -2 -7 -7 -16 -10 -8 -3 -12 -2 -9 4 6 10 25 14 25 6z m2521 -9
c-6 -8 -8 -16 -5 -19 3 -3 1 -9 -4 -12 -6 -3 -9 0 -8 6 2 16 15 38 23 38 3 0
0 -6 -6 -13z m103 5 c3 -5 -1 -9 -9 -9 -8 0 -12 4 -9 9 3 4 7 8 9 8 2 0 6 -4
9 -8z m376 -7 c0 -12 -19 -12 -23 0 -4 9 -1 12 9 8 7 -3 14 -7 14 -8z m71 -12
c-12 -20 -14 -14 -5 12 4 9 9 14 11 11 3 -2 0 -13 -6 -23z m-3209 10 c-6 -2
-9 -10 -6 -15 4 -7 2 -8 -5 -4 -13 9 -5 26 12 25 9 0 8 -2 -1 -6z m213 -2 c3
-5 0 -13 -6 -17 -8 -5 -9 -3 -4 6 6 10 4 12 -9 7 -10 -4 -15 -3 -11 3 8 13 22
13 30 1z m2769 -7 c3 -8 2 -12 -4 -9 -6 3 -10 10 -10 16 0 14 7 11 14 -7z
m396 1 c5 3 12 0 16 -6 5 -8 3 -9 -6 -4 -10 6 -12 3 -7 -11 6 -17 6 -17 -5 -3
-7 9 -17 16 -21 17 -5 0 -12 4 -15 8 -4 4 -1 4 6 0 7 -4 12 -2 13 6 0 10 2 10
6 0 2 -6 9 -10 13 -7z m38 -10 c-3 -3 -9 2 -12 12 -6 14 -5 15 5 6 7 -7 10
-15 7 -18z m-3963 6 c3 -5 0 -13 -6 -17 -8 -5 -9 -3 -4 6 6 10 4 12 -9 7 -10
-4 -15 -3 -11 3 8 13 22 13 30 1z m234 -9 c7 -14 6 -19 -4 -19 -7 0 -11 7 -7
15 4 11 1 13 -8 7 -9 -5 -11 -4 -6 3 10 16 14 15 25 -6z m3477 -11 c-4 -6 -13
-11 -19 -10 -9 0 -9 2 1 6 6 2 12 9 12 14 0 6 -5 7 -12 3 -7 -5 -8 -3 -3 5 5
9 11 9 17 3 6 -6 7 -15 4 -21z m-3670 -4 c1 -9 -2 -15 -7 -11 -5 3 -7 9 -4 14
3 4 0 11 -5 13 -6 3 -5 4 1 3 7 -1 13 -10 15 -19z m131 1 c-3 -8 -6 -5 -6 6
-1 11 2 17 5 13 3 -3 4 -12 1 -19z m115 8 c7 4 8 2 4 -5 -4 -6 -12 -9 -17 -6
-5 4 -9 1 -9 -6 0 -7 -2 -10 -5 -7 -3 3 -2 13 2 24 4 11 8 13 11 6 2 -7 9 -9
14 -6z m133 4 c-3 -5 -12 -10 -18 -10 -7 0 -6 4 3 10 19 12 23 12 15 0z m186
-7 c13 -16 12 -17 -3 -4 -10 7 -18 15 -18 17 0 8 8 3 21 -13z m60 -6 c-10 -9
-11 -8 -5 6 3 10 9 15 12 12 3 -3 0 -11 -7 -18z m55 -3 c1 -9 0 -13 -4 -10 -3
4 -7 14 -8 22 -1 9 0 13 4 10 3 -4 7 -14 8 -22z m121 20 c-3 -3 -12 -4 -19 -1
-8 3 -5 6 6 6 11 1 17 -2 13 -5z m2409 -31 c-3 -4 -6 -1 -6 6 0 7 -4 10 -9 6
-5 -3 -13 0 -17 6 -4 8 -3 9 4 5 7 -4 12 -1 12 6 0 8 5 6 11 -5 6 -10 8 -21 5
-24z m229 27 c-3 -5 -12 -10 -18 -10 -7 0 -6 4 3 10 19 12 23 12 15 0z m122 4
c-3 -3 -12 -4 -19 -1 -8 3 -5 6 6 6 11 1 17 -2 13 -5z m38 -4 c4 -6 10 -8 15
-5 5 3 11 1 14 -4 8 -12 -14 -8 -39 7 -11 6 -15 12 -8 12 6 0 15 -5 18 -10z
m132 -22 c-3 -7 -5 -2 -5 12 0 14 2 19 5 13 2 -7 2 -19 0 -25z m80 26 c-3 -3
-12 -4 -19 -1 -8 3 -5 6 6 6 11 1 17 -2 13 -5z m29 -23 c-4 -6 -13 -11 -19
-11 -8 0 -7 3 2 9 8 5 10 14 6 22 -6 11 -5 11 5 2 7 -6 9 -16 6 -22z m-3731 9
c3 -5 1 -10 -4 -10 -6 0 -11 5 -11 10 0 6 2 10 4 10 3 0 8 -4 11 -10z m304 -4
c9 -11 9 -16 0 -22 -8 -5 -9 -3 -4 6 6 10 4 12 -8 7 -11 -4 -14 -2 -10 9 6 17
8 17 22 0z m86 -4 c-3 -3 -11 0 -18 7 -9 10 -8 11 6 5 10 -3 15 -9 12 -12z
m233 4 c-7 -8 -15 -12 -17 -11 -5 6 10 25 20 25 5 0 4 -6 -3 -14z m2372 4 c0
-5 -2 -10 -4 -10 -3 0 -8 5 -11 10 -3 6 -1 10 4 10 6 0 11 -4 11 -10z m131
-17 c-12 -20 -14 -14 -5 12 4 9 9 14 11 11 3 -2 0 -13 -6 -23z m69 17 c0 -5
-4 -10 -10 -10 -5 0 -10 5 -10 10 0 6 5 10 10 10 6 0 10 -4 10 -10z m670 0 c0
-5 -5 -10 -11 -10 -5 0 -7 5 -4 10 3 6 8 10 11 10 2 0 4 -4 4 -10z m-3165 -18
c-3 -3 -11 0 -18 7 -9 10 -8 11 6 5 10 -3 15 -9 12 -12z m2989 9 c3 -5 -1 -11
-9 -15 -8 -3 -17 0 -21 6 -4 7 -3 8 4 4 7 -4 12 -2 12 3 0 13 7 14 14 2z
m-3919 -10 c-3 -5 -1 -12 5 -16 5 -3 10 -11 10 -18 0 -6 -7 -2 -15 9 -17 23
-19 34 -4 34 5 0 8 -4 4 -9z m101 -3 c4 -7 3 -8 -4 -4 -7 4 -12 2 -12 -3 0 -6
-5 -11 -11 -11 -8 0 -8 5 1 15 15 18 17 18 26 3z m99 3 c-3 -6 3 -14 12 -20
10 -6 13 -11 8 -11 -13 0 -35 20 -35 32 0 4 5 8 11 8 5 0 8 -4 4 -9z m85 0 c0
-5 -8 -15 -17 -22 -16 -12 -17 -12 -6 2 7 9 10 19 6 22 -3 4 -1 7 5 7 7 0 12
-4 12 -9z m95 -1 c-3 -5 -2 -10 4 -10 5 0 12 6 14 13 4 9 6 9 6 0 1 -15 -16
-26 -29 -18 -10 6 -5 25 6 25 3 0 2 -4 -1 -10z m379 -2 c-5 -8 -1 -9 12 -4 14
5 16 4 7 -5 -13 -13 -37 -3 -28 12 4 5 8 9 11 9 3 0 2 -5 -2 -12z m142 0 c5
-7 3 -8 -6 -3 -10 6 -12 4 -7 -8 4 -11 2 -14 -9 -10 -11 4 -12 9 -3 19 14 17
16 17 25 2z m100 0 c3 -4 -1 -5 -10 -4 -8 1 -18 5 -22 8 -3 4 1 5 10 4 8 -1
18 -5 22 -8z m2177 -3 c-3 -9 -8 -14 -10 -11 -3 3 -2 9 2 15 9 16 15 13 8 -4z
m210 -16 c-8 -8 -13 -7 -18 2 -6 8 -4 10 5 4 10 -6 12 -4 6 11 -6 15 -5 17 5
7 9 -10 10 -16 2 -24z m238 -1 c-10 -11 -11 -9 -5 6 6 15 4 17 -6 11 -9 -6
-11 -4 -5 4 5 9 10 10 18 2 8 -8 7 -14 -2 -23z m192 6 c-4 -11 -9 -12 -19 -3
-19 15 -18 20 3 12 12 -5 14 -3 8 7 -5 8 -4 11 3 6 6 -4 9 -13 5 -22z m81 -13
c-5 -6 -34 20 -34 30 0 5 8 1 18 -8 10 -10 17 -20 16 -22z m143 32 c-4 -3 -1
-13 6 -22 11 -14 10 -14 -5 -2 -21 15 -23 31 -6 31 6 0 8 -3 5 -7z m83 -2 c0
-5 -8 -15 -17 -22 -16 -12 -17 -12 -6 2 7 9 10 19 6 22 -3 4 -1 7 5 7 7 0 12
-4 12 -9z m-3686 -41 c-6 -5 -24 21 -24 34 0 6 6 1 14 -10 8 -10 12 -21 10
-24z m126 36 c0 -2 -8 -10 -17 -17 -16 -13 -17 -12 -4 4 13 16 21 21 21 13z
m34 -10 c-10 -8 -21 -12 -24 -10 -5 6 21 24 34 24 6 0 1 -6 -10 -14z m90 -2
c9 -24 2 -26 -12 -4 -7 11 -8 20 -3 20 5 0 12 -7 15 -16z m2560 -8 c-3 -9 -10
-16 -15 -16 -5 0 -4 9 3 20 14 22 21 20 12 -4z m51 14 c-3 -5 -14 -10 -23 -9
-14 0 -13 2 3 9 27 11 27 11 20 0z m229 -12 c-14 -22 -13 -40 1 -34 14 5 15
-18 0 -31 -4 -4 -5 -3 -2 3 4 7 1 14 -7 17 -8 3 -13 12 -12 19 5 23 18 49 23
44 3 -3 1 -11 -3 -18z m184 2 c-7 -10 -14 -18 -15 -16 -6 6 9 36 18 36 5 0 4
-9 -3 -20z m-3670 -10 c-7 -10 -14 -17 -17 -15 -4 4 18 35 25 35 2 0 -1 -9 -8
-20z m89 9 c-9 -6 -15 -14 -12 -20 4 -5 1 -9 -4 -9 -6 0 -11 4 -11 8 0 12 22
32 35 32 5 0 2 -5 -8 -11z m214 -21 c-10 -11 -11 -9 -5 6 6 15 4 17 -6 11 -9
-6 -11 -4 -5 4 5 9 10 10 18 2 8 -8 7 -14 -2 -23z m167 20 c7 -7 12 -17 12
-22 0 -6 -5 -3 -11 7 -6 9 -14 15 -20 12 -5 -4 -9 -1 -9 4 0 14 13 14 28 -1z
m300 -13 c-3 -3 -9 2 -12 12 -6 14 -5 15 5 6 7 -7 10 -15 7 -18z m37 15 c-3
-5 -12 -10 -18 -10 -7 0 -6 4 3 10 19 12 23 12 15 0z m78 -8 c-10 -10 -20 -17
-22 -16 -6 5 20 34 30 34 5 0 1 -8 -8 -18z m52 0 c-3 -3 -11 0 -18 7 -9 10 -8
11 6 5 10 -3 15 -9 12 -12z m2135 -2 c-12 -23 -16 -24 -26 -8 -4 6 -3 8 3 5 6
-4 13 0 17 8 3 8 8 15 11 15 3 0 1 -9 -5 -20z m44 5 c3 -8 1 -15 -4 -15 -6 0
-10 7 -10 15 0 8 2 15 4 15 2 0 6 -7 10 -15z m169 -2 c-5 -12 -3 -14 7 -8 9 6
11 4 5 -4 -5 -9 -11 -9 -17 -3 -6 6 -7 15 -4 21 11 17 16 13 9 -6z m113 2 c-1
-8 -6 -18 -11 -22 -4 -5 -5 -2 0 6 6 11 4 13 -11 8 -18 -7 -18 -7 0 8 24 18
25 18 22 0z m44 -5 c-24 -15 -36 -11 -14 4 10 8 21 12 24 10 2 -3 -2 -9 -10
-14z m85 10 c3 -6 -1 -7 -9 -4 -18 7 -21 14 -7 14 6 0 13 -4 16 -10z m273 -10
c-7 -10 -14 -17 -17 -15 -4 4 18 35 25 35 2 0 -1 -9 -8 -20z m116 4 c3 -8 2
-12 -4 -9 -6 3 -10 10 -10 16 0 14 7 11 14 -7z m210 2 c-5 -13 -34 -31 -34
-21 0 5 30 35 35 35 3 0 2 -6 -1 -14z m-3992 -10 c7 4 8 2 4 -5 -9 -13 -26 -5
-25 12 0 9 2 8 6 -1 2 -6 10 -9 15 -6z m541 -1 c-3 -9 -8 -14 -10 -11 -3 3 -2
9 2 15 9 16 15 13 8 -4z m2885 -10 c-3 -3 -9 2 -12 12 -6 14 -5 15 5 6 7 -7
10 -15 7 -18z m82 21 c0 -2 -9 -6 -20 -9 -11 -3 -18 -1 -14 4 5 9 34 13 34 5z
m317 -2 c-3 -3 -12 -4 -19 -1 -8 3 -5 6 6 6 11 1 17 -2 13 -5z m-3929 -29 c-3
-3 -9 2 -12 12 -6 14 -5 15 5 6 7 -7 10 -15 7 -18z m681 -3 c-1 -15 -2 -15 -6
1 -2 9 -9 14 -15 11 -7 -4 -8 -2 -4 5 10 15 26 4 25 -17z m46 -13 c-2 -10 0
-21 6 -24 5 -4 9 -12 9 -18 0 -7 -6 -3 -12 8 -14 23 -22 87 -8 65 4 -7 7 -21
5 -31z m139 29 c-5 -8 -1 -9 12 -4 14 5 16 4 7 -5 -13 -13 -37 -3 -28 12 4 5
8 9 11 9 3 0 2 -5 -2 -12z m2417 -15 c-12 -20 -14 -14 -5 12 4 9 9 14 11 11 3
-2 0 -13 -6 -23z m503 15 c-5 -8 -2 -9 11 -4 15 5 16 4 5 -9 -17 -20 -29 -19
-25 3 5 23 4 22 11 22 3 0 2 -5 -2 -12z m-3658 -18 c0 -12 -4 -16 -9 -11 -5 5
-6 14 -3 20 10 15 12 14 12 -9z m47 13 c-7 -2 -19 -2 -25 0 -7 3 -2 5 12 5 14
0 19 -2 13 -5z m81 -8 c11 -8 16 -15 10 -15 -5 0 -18 7 -28 15 -11 8 -16 15
-10 15 5 0 18 -7 28 -15z m153 -4 c-1 -16 -4 -18 -17 -8 -25 19 -26 20 -7 14
9 -4 17 -2 17 3 0 6 2 10 4 10 3 0 4 -9 3 -19z m60 -13 c-3 -7 -5 -2 -5 12 0
14 2 19 5 13 2 -7 2 -19 0 -25z m487 16 c3 -8 2 -12 -4 -9 -6 3 -10 10 -10 16
0 14 7 11 14 -7z m23 -6 c-3 -8 -6 -5 -6 6 -1 11 2 17 5 13 3 -3 4 -12 1 -19z
m2343 7 c5 3 12 0 16 -6 4 -8 3 -9 -4 -5 -7 4 -12 1 -12 -6 0 -9 -3 -9 -10 2
-5 8 -9 20 -9 25 0 6 3 4 6 -3 2 -6 9 -10 13 -7z m167 -7 c-3 -8 -6 -5 -6 6
-1 11 2 17 5 13 3 -3 4 -12 1 -19z m60 0 c-3 -8 -6 -5 -6 6 -1 11 2 17 5 13 3
-3 4 -12 1 -19z m313 7 c-7 -8 -18 -15 -24 -15 -6 0 -2 7 8 15 25 19 32 19 16
0z m106 -2 c-2 -9 -9 -19 -17 -21 -11 -3 -11 -1 1 7 8 6 11 11 7 11 -5 0 -5 5
-2 10 9 15 14 12 11 -7z m47 10 c-7 -2 -19 -2 -25 0 -7 3 -2 5 12 5 14 0 19
-2 13 -5z m51 -22 c-2 -3 -12 3 -22 13 -16 17 -16 18 5 5 12 -7 20 -15 17 -18z
m-4144 9 c0 -5 -5 -10 -11 -10 -5 0 -7 5 -4 10 3 6 8 10 11 10 2 0 4 -4 4 -10z
m63 -4 c4 -10 1 -13 -8 -9 -8 3 -12 9 -9 14 7 12 11 11 17 -5z m227 5 c0 -6
-4 -12 -8 -15 -5 -3 -9 1 -9 9 0 8 4 15 9 15 4 0 8 -4 8 -9z m155 -9 c11 -6
15 -12 8 -12 -6 0 -14 4 -18 9 -3 6 -14 8 -24 6 -10 -2 -24 1 -31 5 -22 14 42
6 65 -8z m177 -6 c7 4 8 2 4 -5 -10 -15 -26 -4 -25 17 1 15 2 15 6 -1 2 -9 9
-14 15 -11z m73 15 c-9 -8 -36 -10 -30 -2 2 4 11 8 20 8 8 0 13 -3 10 -6z
m2393 -3 c-2 -6 -10 -13 -16 -14 -7 -1 -8 0 -2 3 5 2 8 9 4 14 -3 5 0 9 6 9 7
0 10 -5 8 -12z m142 2 c0 -4 -13 -7 -30 -7 -16 0 -30 3 -30 7 0 3 14 6 30 6
17 0 30 -3 30 -6z m80 0 c0 -5 -4 -10 -10 -10 -5 0 -10 5 -10 10 0 6 5 10 10
10 6 0 10 -4 10 -10z m164 1 c3 -5 0 -11 -7 -14 -8 -3 -14 1 -14 9 0 16 13 19
21 5z m259 -6 c-3 -9 -8 -14 -10 -11 -3 3 -2 9 2 15 9 16 15 13 8 -4z m74 0
c4 -4 3 -5 -4 -2 -6 4 -13 2 -15 -5 -3 -8 -6 -6 -10 4 -7 17 15 19 29 3z
m-2962 -5 c3 -6 -1 -7 -9 -4 -18 7 -21 14 -7 14 6 0 13 -4 16 -10z m2200 0 c3
-5 1 -10 -4 -10 -6 0 -11 5 -11 10 0 6 2 10 4 10 3 0 8 -4 11 -10z m-2872 -17
c-3 -7 -6 -13 -8 -13 -2 0 -5 6 -8 13 -3 8 1 14 8 14 7 0 11 -6 8 -14z m80 10
c-7 -2 -19 -2 -25 0 -7 3 -2 5 12 5 14 0 19 -2 13 -5z m120 -10 c-5 -12 -3
-14 7 -8 9 6 11 4 5 -4 -5 -9 -11 -9 -17 -3 -6 6 -7 15 -4 21 11 17 16 13 9
-6z m188 -10 c-12 -20 -14 -14 -5 12 4 9 9 14 11 11 3 -2 0 -13 -6 -23z m80 4
c-10 -9 -11 -8 -5 6 3 10 9 15 12 12 3 -3 0 -11 -7 -18z m303 11 c-5 -7 -2 -9
8 -5 17 6 19 -16 3 -30 -4 -4 -5 -3 -2 3 4 7 0 15 -9 18 -13 5 -12 26 2 26 3
0 2 -5 -2 -12z m79 -14 c-5 -14 -9 -13 -43 14 -3 3 6 1 19 -3 18 -5 22 -4 16
5 -5 8 -4 11 3 6 6 -4 9 -13 5 -22z m110 9 c-5 -12 -3 -14 8 -8 8 5 11 4 6 0
-10 -12 -38 -15 -31 -4 3 5 -1 9 -8 10 -10 0 7 11 29 18 1 1 -1 -6 -4 -16z
m2133 5 c5 -7 3 -8 -6 -3 -10 6 -12 4 -6 -11 5 -14 4 -16 -5 -7 -6 6 -8 16 -5
22 9 14 13 14 22 -1z m495 -11 c-10 -9 -11 -8 -5 6 3 10 9 15 12 12 3 -3 0
-11 -7 -18z m80 0 c-8 -8 -14 -7 -23 2 -11 10 -9 11 6 5 15 -6 17 -4 11 6 -6
9 -4 11 4 5 9 -5 10 -10 2 -18z m120 0 c-8 -8 -14 -7 -23 2 -11 10 -9 11 6 5
15 -6 17 -4 11 6 -6 9 -4 11 4 5 9 -5 10 -10 2 -18z m152 -8 c-8 -8 -13 -7
-18 2 -6 8 -4 10 5 4 10 -6 12 -4 6 11 -6 15 -5 17 5 7 9 -10 10 -16 2 -24z
m62 21 c-3 -5 -12 -10 -18 -10 -7 0 -6 4 3 10 19 12 23 12 15 0z m-4032 -13
c4 3 7 1 7 -5 0 -17 -16 -15 -31 6 -12 15 -12 16 2 5 9 -7 19 -10 22 -6z m535
-8 c10 -14 10 -18 -2 -22 -9 -4 -18 -1 -22 5 -5 7 -2 8 6 3 9 -6 10 -2 5 16
-4 13 -6 22 -3 19 2 -3 9 -12 16 -21z m374 -2 c-7 -8 -9 -17 -5 -20 3 -4 1 -7
-5 -7 -7 0 -12 2 -12 5 0 10 24 44 29 40 2 -3 -1 -11 -7 -18z m132 12 c-4 -7
2 -9 16 -7 13 2 24 -3 26 -10 1 -7 0 -8 -2 -3 -3 6 -14 7 -29 1 -19 -7 -22 -6
-20 8 5 23 4 22 11 22 3 0 2 -5 -2 -11z m1927 -12 c-10 -9 -11 -8 -5 6 3 10 9
15 12 12 3 -3 0 -11 -7 -18z m449 8 c-7 -8 -17 -15 -23 -15 -6 0 -2 7 9 15 25
19 30 19 14 0z m330 5 c8 -5 12 -11 10 -14 -3 -2 -14 2 -24 10 -22 15 -10 19
14 4z m-3800 -8 c0 -5 -7 -9 -15 -9 -8 0 -12 4 -9 9 3 4 9 8 15 8 5 0 9 -4 9
-8z m127 -3 c-9 -6 -15 -14 -12 -20 4 -5 1 -9 -4 -9 -6 0 -11 4 -11 8 0 12 22
32 35 32 5 0 2 -5 -8 -11z m73 -20 c0 -5 -5 -9 -12 -9 -6 0 -8 3 -5 7 4 3 1
13 -6 22 -11 14 -10 14 6 2 9 -7 17 -17 17 -22z m60 5 c0 -2 -9 0 -20 6 -11 6
-20 13 -20 16 0 2 9 0 20 -6 11 -6 20 -13 20 -16z m91 3 c-10 -9 -11 -8 -5 6
3 10 9 15 12 12 3 -3 0 -11 -7 -18z m69 13 c0 -5 -4 -10 -10 -10 -5 0 -10 5
-10 10 0 6 5 10 10 10 6 0 10 -4 10 -10z m260 -10 c-24 -15 -36 -11 -14 4 10
8 21 12 24 10 2 -3 -2 -9 -10 -14z m85 10 c-3 -5 -12 -10 -18 -10 -7 0 -6 4 3
10 19 12 23 12 15 0z m59 2 c3 -5 -1 -9 -9 -9 -8 0 -12 4 -9 9 3 4 7 8 9 8 2
0 6 -4 9 -8z m181 -2 c3 -6 -1 -7 -9 -4 -18 7 -21 14 -7 14 6 0 13 -4 16 -10z
m1852 -12 c-3 -8 -6 -5 -6 6 -1 11 2 17 5 13 3 -3 4 -12 1 -19z m60 6 c0 -7
-7 -10 -15 -6 -11 4 -13 1 -7 -8 5 -8 4 -11 -3 -6 -6 4 -9 12 -6 20 6 16 31
17 31 0z m74 -1 c13 -17 13 -17 -6 -3 -11 8 -22 16 -24 17 -2 2 0 3 6 3 6 0
17 -8 24 -17z m83 1 c3 -8 2 -12 -4 -9 -6 3 -10 10 -10 16 0 14 7 11 14 -7z
m157 -7 c-10 -9 -11 -8 -5 6 3 10 9 15 12 12 3 -3 0 -11 -7 -18z m84 5 c-3 -3
-11 0 -18 7 -9 10 -8 11 6 5 10 -3 15 -9 12 -12z m50 8 c3 -6 -1 -7 -9 -4 -10
4 -16 1 -16 -7 0 -7 -3 -10 -6 -6 -7 7 4 27 16 27 5 0 12 -4 15 -10z m55 -1
c0 -5 -4 -8 -9 -4 -6 3 -14 -3 -20 -12 -6 -10 -11 -13 -11 -7 0 12 20 34 32
34 4 0 8 -5 8 -11z m100 -4 c0 -12 -19 -12 -23 0 -4 9 -1 12 9 8 7 -3 14 -7
14 -8z m88 -10 c-3 -3 -9 2 -12 12 -6 14 -5 15 5 6 7 -7 10 -15 7 -18z m37 15
c-3 -5 -12 -10 -18 -10 -7 0 -6 4 3 10 19 12 23 12 15 0z m56 -22 c-10 -11
-11 -9 -5 6 6 15 4 17 -6 11 -9 -6 -11 -4 -5 4 5 9 10 10 18 2 8 -8 7 -14 -2
-23z m253 16 c3 -8 2 -12 -4 -9 -6 3 -10 10 -10 16 0 14 7 11 14 -7z m-3636
-8 c-7 -8 -15 -12 -17 -11 -5 6 10 25 20 25 5 0 4 -6 -3 -14z m197 5 c3 -5 0
-13 -6 -17 -8 -5 -9 -3 -4 6 6 10 4 12 -9 7 -10 -4 -15 -3 -11 3 8 13 22 13
30 1z m2619 0 c3 -4 -6 -6 -19 -3 -14 2 -25 6 -25 8 0 8 39 4 44 -5z m64 -5
c-7 -8 -15 -12 -17 -11 -5 6 10 25 20 25 5 0 4 -6 -3 -14z m797 3 c11 -16 1
-19 -13 -3 -7 8 -8 14 -3 14 5 0 13 -5 16 -11z m-3600 -19 c-3 -4 0 -11 5 -13
6 -3 5 -4 -1 -3 -7 1 -13 10 -15 19 -1 9 2 15 7 11 5 -3 7 -9 4 -14z m395 5
c7 -9 8 -15 2 -15 -5 0 -12 7 -16 15 -3 8 -4 15 -2 15 2 0 9 -7 16 -15z m284
-1 c3 -8 2 -12 -4 -9 -6 3 -10 10 -10 16 0 14 7 11 14 -7z m1741 -12 c2 -12
-1 -25 -7 -28 -7 -4 -8 -2 -4 4 4 7 1 12 -6 13 -9 0 -10 2 -1 5 7 3 9 13 6 22
-3 9 -3 14 1 11 4 -4 8 -16 11 -27z m160 7 c-4 -5 -12 -9 -18 -8 -9 0 -8 2 1
6 6 2 9 10 6 15 -4 7 -2 8 5 4 6 -4 9 -12 6 -17z m312 15 c-3 -3 -12 -4 -19
-1 -8 3 -5 6 6 6 11 1 17 -2 13 -5z m259 -23 c-4 -6 -13 -11 -19 -10 -9 0 -9
2 1 6 6 2 12 9 12 14 0 6 -5 7 -12 3 -7 -5 -8 -3 -3 5 5 9 11 9 17 3 6 -6 7
-15 4 -21z m47 14 c4 -8 3 -16 -1 -19 -4 -3 -9 4 -9 15 -2 23 3 25 10 4z m247
6 c0 -6 -4 -12 -8 -15 -5 -3 -9 1 -9 9 0 8 4 15 9 15 4 0 8 -4 8 -9z m56 -3
c5 -7 3 -8 -6 -3 -10 6 -12 4 -6 -11 5 -14 4 -16 -5 -7 -6 6 -8 16 -5 22 9 14
13 14 22 -1z m-2890 -35 c-3 -4 -6 -1 -6 6 0 7 -4 10 -9 6 -5 -3 -13 0 -17 6
-4 8 -3 9 4 5 7 -4 12 -1 12 6 0 8 5 6 11 -5 6 -10 8 -21 5 -24z m207 25 c-2
-5 -13 -8 -23 -8 -10 0 -21 3 -23 8 -3 4 8 7 23 7 15 0 26 -3 23 -7z m2154
-10 c-3 -8 -6 -5 -6 6 -1 11 2 17 5 13 3 -3 4 -12 1 -19z m70 9 c0 -8 -6 -14
-13 -14 -7 0 -10 6 -7 14 7 17 20 17 20 0z m38 3 c4 -6 10 -8 15 -5 5 3 11 1
14 -4 8 -12 -14 -8 -39 7 -11 6 -15 12 -8 12 6 0 15 -5 18 -10z m-3325 -10 c0
-5 -2 -10 -4 -10 -3 0 -8 5 -11 10 -3 6 -1 10 4 10 6 0 11 -4 11 -10z m80 -9
c7 -15 7 -19 -5 -17 -8 1 -18 6 -22 11 -5 4 -2 5 6 0 11 -6 13 -4 8 8 -9 23 0
21 13 -2z m35 9 c-3 -5 -12 -10 -18 -10 -7 0 -6 4 3 10 19 12 23 12 15 0z m88
-4 c4 -11 1 -13 -10 -9 -12 5 -14 3 -8 -7 5 -9 4 -11 -4 -6 -9 6 -9 11 0 22
14 17 16 17 22 0z m137 -1 c11 -13 10 -14 -4 -9 -9 3 -16 10 -16 15 0 13 6 11
20 -6z m130 4 c0 -5 -4 -8 -9 -4 -5 3 -12 1 -16 -5 -3 -5 -11 -10 -18 -10 -6
0 -2 7 9 15 23 17 34 19 34 4z m46 0 c3 -6 2 -15 -4 -21 -6 -6 -12 -6 -17 3
-5 8 -4 10 3 5 7 -4 12 -3 12 3 0 5 -6 12 -12 14 -10 4 -10 6 -1 6 6 1 15 -4
19 -10z m76 -7 c-7 -2 -9 -9 -5 -15 3 -7 2 -8 -2 -4 -16 14 -14 36 3 29 10 -4
12 -7 4 -10z m108 8 c-8 -5 -19 -10 -25 -10 -5 0 -3 5 5 10 8 5 20 10 25 10 6
0 3 -5 -5 -10z m296 -2 c4 -7 3 -8 -4 -4 -7 4 -12 2 -12 -5 0 -7 -3 -10 -6 -6
-6 5 3 27 11 27 2 0 7 -5 11 -12z m107 -2 c4 -10 1 -13 -8 -9 -8 3 -12 9 -9
14 7 12 11 11 17 -5z m1522 -4 c-3 -3 -11 0 -18 7 -9 10 -8 11 6 5 10 -3 15
-9 12 -12z m105 8 c0 -5 -2 -10 -4 -10 -3 0 -8 5 -11 10 -3 6 -1 10 4 10 6 0
11 -4 11 -10z m60 6 c0 -2 -7 -7 -16 -10 -8 -3 -12 -2 -9 4 6 10 25 14 25 6z
m70 -11 c11 -13 10 -14 -4 -9 -9 3 -16 10 -16 15 0 13 6 11 20 -6z m85 -3 c-3
-3 -11 0 -18 7 -9 10 -8 11 6 5 10 -3 15 -9 12 -12z m138 4 c4 -10 1 -13 -8
-9 -8 3 -12 9 -9 14 7 12 11 11 17 -5z m109 -4 c-7 -2 -9 -9 -6 -14 4 -7 2 -8
-4 -4 -6 4 -9 13 -6 21 4 8 11 12 17 8 8 -5 7 -8 -1 -11z m453 8 c3 -5 1 -10
-4 -10 -6 0 -11 5 -11 10 0 6 2 10 4 10 3 0 8 -4 11 -10z m-3715 -10 c0 -5 -7
-7 -15 -4 -8 4 -15 8 -15 10 0 2 7 4 15 4 8 0 15 -4 15 -10z m956 1 c-4 -5 0
-12 6 -14 8 -3 6 -6 -4 -6 -18 -1 -24 10 -11 22 9 10 15 8 9 -2z m1648 -7 c3
-8 2 -12 -4 -9 -6 3 -10 10 -10 16 0 14 7 11 14 -7z m511 -4 c-3 -5 -1 -11 5
-15 5 -3 10 -12 10 -18 0 -7 -6 -3 -12 8 -15 25 -19 47 -7 39 5 -3 7 -9 4 -14z
m440 10 c4 -6 -1 -7 -11 -3 -13 5 -15 3 -9 -7 5 -9 4 -11 -4 -6 -6 4 -9 12 -6
17 8 12 22 12 30 -1z m-3421 -39 c-5 -6 -34 20 -34 30 0 5 8 1 18 -8 10 -10
17 -20 16 -22z m226 31 c0 -12 -22 -32 -34 -32 -6 0 -3 5 7 11 9 6 15 14 12
20 -4 5 -1 9 4 9 6 0 11 -4 11 -8z m280 -17 c14 -19 14 -19 -2 -6 -10 7 -18
18 -18 24 0 6 1 8 3 6 1 -2 9 -13 17 -24z m157 19 c-3 -3 -12 -4 -19 -1 -8 3
-5 6 6 6 11 1 17 -2 13 -5z m77 -6 c-5 -8 -1 -9 12 -4 14 5 16 4 7 -5 -6 -6
-16 -8 -22 -5 -14 9 -14 26 0 26 5 0 7 -5 3 -12z m1806 -3 c0 -1 -7 -8 -15
-15 -13 -11 -14 -10 -9 5 6 14 4 16 -6 10 -8 -5 -11 -4 -6 3 5 9 36 7 36 -3z
m70 -10 c-7 -8 -16 -15 -21 -15 -5 0 -1 8 9 18 20 22 31 19 12 -3z m224 13
c-5 -8 -2 -9 11 -4 15 5 16 4 5 -9 -10 -12 -15 -13 -21 -3 -7 12 -3 28 7 28 3
0 2 -5 -2 -12z m280 -27 c-5 -6 -34 20 -34 30 0 5 8 1 18 -8 10 -10 17 -20 16
-22z m63 32 c-4 -3 -1 -13 6 -22 11 -14 10 -14 -5 -2 -21 15 -23 31 -6 31 6 0
8 -3 5 -7z m176 -19 c-4 -11 -9 -12 -19 -3 -19 15 -18 20 3 12 12 -5 14 -3 8
7 -5 8 -4 11 3 6 6 -4 9 -13 5 -22z m184 20 c-3 -3 -12 -4 -19 -1 -8 3 -5 6 6
6 11 1 17 -2 13 -5z m78 -13 c-3 -6 -11 -11 -16 -11 -5 0 -4 6 3 14 14 16 24
13 13 -3z m-3555 -1 c8 -5 12 -11 10 -14 -3 -2 -14 2 -24 10 -22 15 -10 19 14
4z m49 -24 c-3 -3 -11 5 -18 17 -13 21 -12 21 5 5 10 -10 16 -20 13 -22z m184
19 c-3 -9 -8 -14 -10 -11 -3 3 -2 9 2 15 9 16 15 13 8 -4z m122 -6 c-4 -5 -1
-9 6 -9 7 0 10 -3 6 -6 -3 -3 -14 -1 -24 5 -11 6 -13 11 -5 11 7 0 10 5 6 12
-4 7 -3 8 5 4 6 -4 9 -12 6 -17z m289 -3 c-3 -9 -10 -16 -15 -16 -5 0 -4 9 3
20 14 22 21 20 12 -4z m186 9 c5 3 11 1 14 -4 4 -5 -2 -8 -11 -7 -9 2 -18 8
-19 15 -1 6 0 7 3 1 2 -5 9 -8 13 -5z m1803 0 c-3 -9 -8 -14 -10 -11 -3 3 -2
9 2 15 9 16 15 13 8 -4z m204 9 c-3 -3 -12 -4 -19 -1 -8 3 -5 6 6 6 11 1 17
-2 13 -5z m43 -4 c8 -5 12 -11 10 -14 -3 -2 -14 2 -24 10 -22 15 -10 19 14 4z
m308 -10 c-7 -10 -14 -18 -15 -16 -6 6 9 36 18 36 5 0 4 -9 -3 -20z m316 4 c3
-8 2 -12 -4 -9 -6 3 -10 10 -10 16 0 14 7 11 14 -7z m-3421 -12 c-10 -10 -20
-17 -22 -16 -6 5 20 34 30 34 5 0 1 -8 -8 -18z m187 3 c7 -9 8 -15 2 -15 -5 0
-12 7 -16 15 -3 8 -4 15 -2 15 2 0 9 -7 16 -15z m44 -1 c3 -8 2 -12 -4 -9 -6
3 -10 10 -10 16 0 14 7 11 14 -7z m186 5 c0 -5 -4 -8 -9 -4 -6 3 -14 -3 -20
-12 -6 -10 -11 -13 -11 -7 0 12 20 34 32 34 4 0 8 -5 8 -11z m60 -20 c0 -5 -5
-9 -12 -9 -6 0 -8 3 -5 7 4 3 1 13 -6 22 -11 14 -10 14 6 2 9 -7 17 -17 17
-22z m176 19 c5 -7 3 -8 -6 -3 -10 6 -12 4 -6 -11 5 -14 4 -16 -5 -7 -6 6 -8
16 -5 22 9 14 13 14 22 -1z m64 8 c0 -2 -7 -7 -16 -10 -8 -3 -12 -2 -9 4 6 10
25 14 25 6z m100 -8 c0 -6 -3 -8 -7 -5 -3 4 -13 1 -22 -6 -14 -11 -14 -10 -2
6 15 20 31 22 31 5z m51 -5 c12 -16 12 -17 -2 -6 -9 7 -19 10 -22 6 -4 -3 -7
-1 -7 5 0 17 16 15 31 -5z m57 -4 c3 -12 2 -12 -6 0 -6 8 -15 10 -22 6 -9 -5
-11 -4 -6 4 10 15 28 10 34 -10z m32 11 c0 -5 -5 -10 -11 -10 -5 0 -7 5 -4 10
3 6 8 10 11 10 2 0 4 -4 4 -10z m70 -5 c7 -9 8 -15 2 -15 -5 0 -12 7 -16 15
-3 8 -4 15 -2 15 2 0 9 -7 16 -15z m1210 11 c0 -2 -7 -7 -16 -10 -8 -3 -12 -2
-9 4 6 10 25 14 25 6z m40 -28 c0 -19 -16 -5 -17 14 -2 18 0 20 7 8 5 -8 10
-18 10 -22z m80 -3 c0 -5 -5 -3 -10 5 -5 8 -10 20 -10 25 0 6 5 3 10 -5 5 -8
10 -19 10 -25z m148 10 c-3 -3 -9 2 -12 12 -6 14 -5 15 5 6 7 -7 10 -15 7 -18z
m123 8 c12 -16 12 -17 -2 -6 -9 7 -19 10 -22 6 -4 -3 -7 -1 -7 5 0 17 16 15
31 -5z m252 -1 c-10 -10 -20 -17 -22 -16 -6 5 20 34 30 34 5 0 1 -8 -8 -18z
m40 1 c-5 -12 -3 -14 7 -8 9 5 11 4 6 -4 -4 -6 -12 -8 -18 -5 -7 5 -9 2 -6 -8
4 -8 1 -15 -7 -15 -8 0 -11 7 -7 15 4 11 1 13 -8 7 -9 -5 -11 -4 -6 4 4 6 11
9 16 6 4 -3 10 2 14 10 3 8 8 15 10 15 3 0 2 -7 -1 -17z m325 -8 c-3 -3 -9 2
-12 12 -6 14 -5 15 5 6 7 -7 10 -15 7 -18z m35 7 c-10 -10 -20 -17 -22 -16 -6
5 20 34 30 34 5 0 1 -8 -8 -18z m78 5 c-6 -8 -8 -17 -4 -20 3 -4 1 -7 -5 -7
-15 0 -15 13 0 28 16 16 23 15 9 -1z m-3248 -11 c6 -15 -17 -16 -30 -1 -4 4
-2 5 5 1 6 -4 12 -2 12 3 0 15 7 14 13 -3z m222 4 c4 -6 -1 -7 -11 -3 -13 5
-15 3 -9 -7 5 -9 4 -11 -4 -6 -6 4 -9 12 -6 17 8 12 22 12 30 -1z m1862 4 c-3
-3 -12 -4 -19 -1 -8 3 -5 6 6 6 11 1 17 -2 13 -5z m-2159 -25 c-7 -5 -14 -4
-16 1 -2 6 -9 7 -14 4 -6 -4 -8 -2 -5 4 4 5 16 8 28 5 16 -4 17 -8 7 -14z
m952 6 c7 -9 8 -15 2 -15 -5 0 -12 7 -16 15 -3 8 -4 15 -2 15 2 0 9 -7 16 -15z
m1346 3 c5 -7 3 -8 -6 -3 -10 6 -12 1 -8 -18 3 -15 1 -24 -3 -21 -11 6 -12 38
-2 47 9 9 11 9 19 -5z m264 -8 c6 -11 8 -20 6 -20 -3 0 -10 9 -16 20 -6 11 -8
20 -6 20 3 0 10 -9 16 -20z m123 5 c-3 -9 -8 -14 -10 -11 -3 3 -2 9 2 15 9 16
15 13 8 -4z m586 -8 c0 -9 -2 -8 -6 1 -2 6 -10 9 -15 6 -7 -4 -8 -2 -4 5 9 13
26 5 25 -12z m-3210 -14 c2 -1 -5 -1 -16 0 -11 0 -20 7 -20 14 0 10 4 10 16 1
9 -7 18 -13 20 -15z m56 17 c3 -6 -1 -7 -9 -4 -18 7 -21 14 -7 14 6 0 13 -4
16 -10z m213 -2 c-2 -6 -12 -12 -21 -14 -9 -1 -15 2 -11 7 3 5 10 7 15 4 5 -4
9 -1 9 4 0 6 3 11 6 11 3 0 4 -5 2 -12z m59 -10 c-3 -8 -6 -5 -6 6 -1 11 2 17
5 13 3 -3 4 -12 1 -19z m295 8 c7 4 8 2 4 -5 -4 -6 -12 -9 -17 -6 -5 4 -9 1
-9 -6 0 -7 -2 -10 -5 -7 -3 3 -2 13 2 24 4 11 8 13 11 6 2 -7 9 -9 14 -6z m60
0 c7 4 8 2 4 -4 -11 -18 -26 -14 -25 6 0 10 3 12 6 4 2 -6 10 -9 15 -6z m62
-2 c4 -9 4 -19 1 -22 -3 -3 -5 0 -5 7 0 7 -4 10 -8 7 -5 -3 -9 1 -9 9 0 20 13
19 21 -1z m1324 5 c-2 -6 -7 -10 -12 -9 -5 1 -13 -4 -18 -12 -8 -10 -9 -10 -5
2 2 8 10 14 16 13 6 -2 11 2 11 7 0 6 3 10 6 10 3 0 4 -5 2 -11z m77 -7 c-3
-3 -11 0 -18 7 -9 10 -8 11 6 5 10 -3 15 -9 12 -12z m132 -4 c-3 -8 -6 -5 -6
6 -1 11 2 17 5 13 3 -3 4 -12 1 -19z m99 11 c3 -6 1 -16 -6 -22 -10 -9 -11 -9
-5 2 4 8 2 17 -6 22 -9 6 -10 9 -2 9 6 0 15 -5 19 -11z m181 -11 c-3 -8 -6 -5
-6 6 -1 11 2 17 5 13 3 -3 4 -12 1 -19z m312 19 c-2 -1 -13 -9 -24 -17 -19
-14 -19 -14 -6 3 7 9 18 17 24 17 6 0 8 -1 6 -3z m38 -3 c-3 -3 -12 -4 -19 -1
-8 3 -5 6 6 6 11 1 17 -2 13 -5z m29 -11 c-2 -9 -9 -19 -17 -21 -11 -3 -11 -1
1 7 8 6 11 11 7 11 -5 0 -5 5 -2 10 9 15 14 12 11 -7z m41 11 c-3 -3 -12 -4
-19 -1 -8 3 -5 6 6 6 11 1 17 -2 13 -5z m-2777 -15 c0 -5 -5 -7 -12 -3 -8 5
-9 1 -4 -12 5 -14 4 -16 -5 -7 -6 6 -8 16 -5 22 9 14 26 14 26 0z m220 -1 c0
-4 -7 -8 -15 -8 -8 0 -15 4 -15 8 0 5 7 9 15 9 8 0 15 -4 15 -9z m90 2 c-7 -5
-21 -7 -31 -5 -10 2 -21 0 -24 -6 -4 -5 -11 -9 -18 -9 -25 0 26 25 55 27 19 0
26 -2 18 -7z m55 0 c-3 -5 -12 -10 -18 -10 -7 0 -6 4 3 10 19 12 23 12 15 0z
m265 1 c0 -5 -7 -12 -16 -15 -14 -5 -15 -4 -4 9 14 17 20 19 20 6z m150 -1 c0
-5 -9 -7 -20 -5 -11 2 -22 0 -25 -6 -4 -5 -11 -9 -18 -9 -6 0 -3 6 7 13 21 15
56 20 56 7z m60 0 c0 -5 -4 -10 -10 -10 -5 0 -10 5 -10 10 0 6 5 10 10 10 6 0
10 -4 10 -10z m64 -2 c-3 -5 -10 -6 -15 -3 -5 4 -9 1 -9 -6 0 -7 -3 -10 -6 -6
-9 9 3 24 20 24 8 0 13 -4 10 -9z m51 -6 c-3 -3 -11 0 -18 7 -9 10 -8 11 6 5
10 -3 15 -9 12 -12z m1309 3 c-10 -8 -23 -15 -28 -15 -6 0 -1 7 10 15 10 8 23
15 28 15 6 0 1 -7 -10 -15z m203 -7 c-3 -8 -6 -5 -6 6 -1 11 2 17 5 13 3 -3 4
-12 1 -19z m60 0 c-3 -8 -6 -5 -6 6 -1 11 2 17 5 13 3 -3 4 -12 1 -19z m293 8
c-7 -7 -13 -7 -20 0 -6 6 -3 10 10 10 13 0 16 -4 10 -10z m-2645 -28 c-7 -32
-13 -32 -11 1 0 16 4 27 8 25 4 -2 5 -14 3 -26z m1610 14 c-3 -3 -11 0 -18 7
-9 10 -8 11 6 5 10 -3 15 -9 12 -12z m195 -3 c0 -5 -4 -9 -8 -9 -5 0 -9 7 -9
15 0 8 4 12 9 9 4 -3 8 -9 8 -15z m412 7 c7 4 8 2 4 -5 -9 -13 -26 -5 -25 12
0 9 2 8 6 -1 2 -6 10 -9 15 -6z m-2525 -2 c-3 -3 -12 -4 -19 -1 -8 3 -5 6 6 6
11 1 17 -2 13 -5z m73 -4 c0 -5 -4 -10 -10 -10 -5 0 -10 5 -10 10 0 6 5 10 10
10 6 0 10 -4 10 -10z m71 -13 c-10 -9 -11 -8 -5 6 3 10 9 15 12 12 3 -3 0 -11
-7 -18z m80 0 c-8 -8 -14 -7 -23 2 -11 10 -9 11 6 5 15 -6 17 -4 11 6 -6 9 -4
11 4 5 9 -5 10 -10 2 -18z m230 -9 c-10 -11 -11 -9 -5 6 6 15 4 17 -6 11 -9
-6 -11 -4 -5 4 5 9 10 10 18 2 8 -8 7 -14 -2 -23z m135 7 c2 -12 -2 -12 -17
-5 -23 13 -25 22 -2 13 12 -5 14 -3 8 8 -5 8 -4 11 0 6 5 -4 10 -14 11 -22z
m204 17 c0 -12 -22 -32 -34 -32 -6 0 -3 5 7 11 9 6 15 14 12 20 -4 5 -1 9 4 9
6 0 11 -4 11 -8z m143 -23 c-8 -8 -13 -7 -18 2 -6 8 -4 10 5 4 10 -6 12 -4 6
11 -6 15 -5 17 5 7 9 -10 10 -16 2 -24z m111 19 c-5 -7 -2 -9 8 -5 17 6 19
-16 3 -30 -4 -4 -5 -3 -2 3 4 7 0 15 -9 18 -13 5 -12 26 2 26 3 0 2 -5 -2 -12z
m79 -14 c-5 -14 -9 -13 -43 14 -3 3 6 1 19 -3 18 -5 22 -4 16 5 -5 8 -4 11 3
6 6 -4 9 -13 5 -22z m102 16 c-3 -5 0 -10 7 -11 10 0 10 -2 0 -6 -6 -2 -9 -10
-6 -15 4 -6 2 -8 -4 -5 -5 4 -9 15 -7 25 5 23 4 22 11 22 3 0 2 -4 -1 -10z
m42 -12 c2 -17 0 -19 -7 -8 -5 8 -6 18 -4 22 8 12 10 10 11 -14z m395 -24 c-6
-12 -9 -7 -9 16 0 23 3 28 9 16 5 -9 5 -23 0 -32z m72 21 c9 -14 12 -25 7 -25
-5 0 -12 9 -16 19 -4 13 -13 18 -28 15 -21 -4 -21 -4 -2 5 11 5 21 10 21 10 1
1 9 -10 18 -24z m216 15 c0 -5 -2 -10 -4 -10 -3 0 -8 5 -11 10 -3 6 -1 10 4
10 6 0 11 -4 11 -10z m54 -2 c-5 -7 -2 -9 8 -6 8 4 15 0 15 -7 0 -10 -5 -11
-19 -4 -16 9 -17 29 -2 29 3 0 2 -5 -2 -12z m273 6 c-3 -3 -12 -4 -19 -1 -8 3
-5 6 6 6 11 1 17 -2 13 -5z m70 0 c-3 -3 -12 -4 -19 -1 -8 3 -5 6 6 6 11 1 17
-2 13 -5z m72 -12 c7 -14 6 -19 -4 -19 -7 0 -11 7 -7 15 4 11 1 13 -8 7 -9 -5
-11 -4 -6 3 10 16 14 15 25 -6z m51 9 c0 -5 -8 -15 -17 -22 -16 -12 -17 -12
-6 2 7 9 10 19 6 22 -3 4 -1 7 5 7 7 0 12 -4 12 -9z m70 -16 c-7 -8 -16 -15
-21 -15 -5 0 -1 8 9 18 20 22 31 19 12 -3z m101 0 c5 4 9 1 9 -4 0 -6 -4 -11
-8 -11 -12 0 -32 22 -32 35 0 5 5 2 11 -8 6 -9 14 -15 20 -12z m67 0 c0 -14
-4 -25 -7 -25 -4 0 -7 11 -7 25 0 14 3 25 7 25 3 0 7 -11 7 -25z m-2078 5 c8
-5 12 -11 10 -14 -3 -2 -14 2 -24 10 -22 15 -10 19 14 4z m34 -20 c-6 -6 -10
-3 -10 10 0 13 4 16 10 10 7 -7 7 -13 0 -20z m536 26 c0 -2 -7 -7 -16 -10 -8
-3 -12 -2 -9 4 6 10 25 14 25 6z m163 -16 c-3 -12 -8 -19 -11 -16 -5 6 5 36
12 36 2 0 2 -9 -1 -20z m45 -11 c-3 -8 -7 -3 -11 10 -4 17 -3 21 5 13 5 -5 8
-16 6 -23z m152 18 c13 4 13 3 1 -6 -14 -9 -51 2 -51 15 0 2 8 1 18 -4 9 -5
24 -7 32 -5z m71 -4 c13 -16 12 -17 -3 -4 -10 7 -18 15 -18 17 0 8 8 3 21 -13z
m154 7 c-3 -5 -1 -10 6 -10 7 0 10 -3 6 -6 -9 -9 -28 6 -22 17 4 5 8 9 11 9 3
0 2 -4 -1 -10z m89 -6 c3 -8 2 -12 -4 -9 -6 3 -10 10 -10 16 0 14 7 11 14 -7z
m196 6 c8 -5 12 -11 10 -14 -3 -2 -14 2 -24 10 -22 15 -10 19 14 4z m154 -30
c-6 -5 -24 21 -24 34 0 6 6 1 14 -10 8 -10 12 -21 10 -24z m367 25 c11 6 11 5
2 -5 -12 -14 -33 -6 -33 13 0 8 3 7 9 -2 5 -8 14 -10 22 -6z m199 5 c0 -5 -2
-10 -4 -10 -3 0 -8 5 -11 10 -3 6 -1 10 4 10 6 0 11 -4 11 -10z m-2516 -15
c-4 -8 -11 -12 -16 -9 -6 4 -5 10 3 15 19 12 19 11 13 -6z m110 -1 c3 -8 2
-12 -4 -9 -6 3 -10 10 -10 16 0 14 7 11 14 -7z m147 -16 c-10 -11 -11 -9 -5 6
6 15 4 17 -6 11 -9 -6 -11 -4 -5 4 5 9 10 10 18 2 8 -8 7 -14 -2 -23z m199 20
c0 -6 -3 -8 -7 -5 -3 4 -13 1 -22 -6 -14 -11 -14 -10 -2 6 15 20 31 22 31 5z
m89 -2 c9 -10 8 -15 -3 -19 -9 -4 -18 -1 -22 5 -5 7 -2 8 6 3 10 -6 12 -4 7 8
-8 21 -3 22 12 3z m45 -2 c3 -8 2 -12 -4 -9 -6 3 -10 10 -10 16 0 14 7 11 14
-7z m150 8 c3 -5 -1 -9 -9 -9 -8 0 -12 4 -9 9 3 4 7 8 9 8 2 0 6 -4 9 -8z
m311 -2 c-3 -5 -12 -10 -18 -10 -7 0 -6 4 3 10 19 12 23 12 15 0z m167 -22
c-6 -6 -12 -6 -17 3 -5 8 -4 10 3 5 7 -4 12 0 13 11 0 12 2 13 6 5 3 -8 1 -18
-5 -24z m108 22 c0 -5 -2 -10 -4 -10 -3 0 -8 5 -11 10 -3 6 -1 10 4 10 6 0 11
-4 11 -10z m221 -13 c-10 -9 -11 -8 -5 6 3 10 9 15 12 12 3 -3 0 -11 -7 -18z
m92 5 c-10 -10 -20 -17 -22 -16 -6 5 20 34 30 34 5 0 1 -8 -8 -18z m58 -14
c-10 -11 -11 -9 -5 6 6 15 4 17 -6 11 -9 -6 -11 -4 -5 4 5 9 10 10 18 2 8 -8
7 -14 -2 -23z m339 1 c0 -5 -5 -9 -12 -9 -6 0 -8 3 -5 7 4 3 1 13 -6 22 -11
14 -10 14 6 2 9 -7 17 -17 17 -22z m70 16 c19 -22 8 -25 -12 -3 -10 10 -14 18
-9 18 5 0 14 -7 21 -15z m-2056 -7 c-5 -8 -1 -9 12 -4 14 5 16 4 7 -5 -13 -13
-37 -3 -28 12 4 5 8 9 11 9 3 0 2 -5 -2 -12z m101 1 c11 -16 1 -19 -13 -3 -7
8 -8 14 -3 14 5 0 13 -5 16 -11z m75 7 c0 -2 -7 -7 -16 -10 -8 -3 -12 -2 -9 4
6 10 25 14 25 6z m405 -6 c3 -6 -1 -7 -9 -4 -18 7 -21 14 -7 14 6 0 13 -4 16
-10z m67 3 c-6 -2 -9 -10 -6 -15 4 -7 2 -8 -5 -4 -13 9 -5 26 12 25 9 0 8 -2
-1 -6z m1173 -3 c4 -6 -1 -7 -11 -3 -13 5 -15 3 -9 -7 5 -9 4 -11 -4 -6 -6 4
-9 12 -6 17 8 12 22 12 30 -1z m-995 -10 c0 -5 -4 -10 -10 -10 -5 0 -10 5 -10
10 0 6 5 10 10 10 6 0 10 -4 10 -10z m775 0 c-3 -5 2 -10 11 -10 10 0 15 -3
11 -6 -10 -10 -39 5 -32 16 3 5 8 10 11 10 3 0 2 -4 -1 -10z m441 -15 c1 -9
-4 -11 -14 -7 -10 4 -12 7 -4 10 7 2 9 9 5 15 -3 7 -2 8 2 4 5 -4 10 -14 11
-22z m-1609 9 c-3 -3 -12 -4 -19 -1 -8 3 -5 6 6 6 11 1 17 -2 13 -5z m93 1 c0
-2 -10 -9 -22 -15 -22 -11 -22 -10 -4 4 21 17 26 19 26 11z m89 -11 c4 3 8 0
8 -7 0 -7 -8 -13 -17 -13 -12 0 -15 6 -12 20 3 12 7 15 10 8 2 -7 7 -10 11 -8z
m266 -13 c-6 -5 -25 10 -25 20 0 5 6 4 14 -3 8 -7 12 -15 11 -17z m218 14 c-3
-9 -8 -14 -10 -11 -3 3 -2 9 2 15 9 16 15 13 8 -4z m214 -17 c-3 -7 -5 -2 -5
12 0 14 2 19 5 13 2 -7 2 -19 0 -25z m67 2 c-6 -6 -10 -2 -11 12 -2 16 1 18
10 9 7 -7 8 -14 1 -21z m-1134 10 c0 -5 -2 -10 -4 -10 -3 0 -8 5 -11 10 -3 6
-1 10 4 10 6 0 11 -4 11 -10z m44 -2 c-3 -4 -9 -8 -15 -8 -5 0 -9 4 -9 8 0 5
7 9 15 9 8 0 12 -4 9 -9z m721 2 c-3 -5 -12 -10 -18 -10 -7 0 -6 4 3 10 19 12
23 12 15 0z m139 1 c4 -5 -3 -7 -14 -4 -23 6 -26 13 -6 13 8 0 17 -4 20 -9z
m296 -1 c0 -5 -4 -10 -10 -10 -5 0 -10 5 -10 10 0 6 5 10 10 10 6 0 10 -4 10
-10z m45 0 c-3 -5 -12 -10 -18 -10 -7 0 -6 4 3 10 19 12 23 12 15 0z m55 -25
c0 -5 -5 -3 -10 5 -5 8 -10 20 -10 25 0 6 5 3 10 -5 5 -8 10 -19 10 -25z m130
25 c-8 -5 -19 -10 -25 -10 -5 0 -3 5 5 10 8 5 20 10 25 10 6 0 3 -5 -5 -10z
m44 -6 c3 -8 2 -12 -4 -9 -6 3 -10 10 -10 16 0 14 7 11 14 -7z m74 -5 c3 -11
2 -11 -7 1 -10 13 -12 13 -21 0 -5 -8 -10 -10 -10 -4 0 27 31 30 38 3z m-1368
7 c0 -3 -4 -8 -10 -11 -5 -3 -10 -1 -10 4 0 6 5 11 10 11 6 0 10 -2 10 -4z
m285 -14 c-3 -3 -11 0 -18 7 -9 10 -8 11 6 5 10 -3 15 -9 12 -12z m480 0 c-3
-3 -11 0 -18 7 -9 10 -8 11 6 5 10 -3 15 -9 12 -12z m-204 -10 c-7 -2 -18 1
-23 6 -8 8 -4 9 13 5 13 -4 18 -8 10 -11z m157 -7 c-3 -3 -9 2 -12 12 -6 14
-5 15 5 6 7 -7 10 -15 7 -18z m329 9 c-3 -3 -12 -4 -19 -1 -8 3 -5 6 6 6 11 1
17 -2 13 -5z"/>
<path d="M3095 50 c-3 -5 -1 -10 4 -10 6 0 11 5 11 10 0 6 -2 10 -4 10 -3 0
-8 -4 -11 -10z"/>
</g>
</svg>
